<svg xmlns="http://www.w3.org/2000/svg" width="23.54" height="23.54" viewBox="0 0 23.54 23.54">
  <defs>
    <style>
      .cls-1 {
        fill: #86bd87;
        opacity: 0;
      }

      .cls-2 {
        fill: #2688f1;
      }
    </style>
  </defs>
  <title>status-processing</title>
  <g id="Layer_2" data-name="Layer 2">
    <g id="Layer_1-2" data-name="Layer 1">
      <g>
        <circle class="cls-1" cx="11.77" cy="11.77" r="11.77"/>
        <path class="cls-2" d="M11.77,20.76A8.5,8.5,0,0,1,4.35,8.12a.84.84,0,0,1,1.23-.24l.74.53A1,1,0,0,1,6.6,9.71,5.77,5.77,0,1,0,12.81,6.6V8.16a.51.51,0,0,1-.28.46.5.5,0,0,1-.24.06.51.51,0,0,1-.3-.1L10,7.1l-2-1.48a.52.52,0,0,1-.21-.42.52.52,0,0,1,.21-.42l2-1.48,2-1.48a.51.51,0,0,1,.82.42V3.83a8.5,8.5,0,0,1-1,16.94Z"/>
      </g>
    </g>
  </g>
</svg>
